ExampleDataM6
version=1
nRows=49
nColumns=19
inDegrees=no
endheader
time	l_ground_force_vx	l_ground_force_vy	l_ground_force_vz	l_ground_force_px	l_ground_force_py	l_ground_force_pz	ground_force_vx	ground_force_vy	ground_force_vz	ground_force_px	ground_force_py	ground_force_pz	l_ground_torque_x	l_ground_torque_y	l_ground_torque_z	ground_torque_x	ground_torque_y	ground_torque_z	
95.04	0	506.381421427711	0	0.071828434860406	0	-0.00529724782625449	0	332.41506154849	0	0.091861852726455	0	0.0169798526536304	0	0	0	0	0	0
95.05	0	508.147433910735	0	0.0722186026404092	0	-0.00527784351442391	0	334.98983718531	0	0.091454448191161	0	0.016889403184334	0	0	0	0	0	0
95.06	0	509.809219655063	0	0.072537148009576	0	-0.00524113283526898	0	337.609504923627	0	0.0911567669166065	0	0.0168204221363891	0	0	0	0	0	0
95.07	0	511.123673898365	0	0.0727600152592888	0	-0.00521126038871696	0	338.708098338997	0	0.0912014136735555	0	0.0168070812290083	0	0	0	0	0	0
95.08	0	511.677134691603	0	0.0728848350687864	0	-0.00522509409475943	0	338.169880654543	0	0.0915993023096436	0	0.0168601660233952	0	0	0	0	0	0
95.09	0	511.401000161919	0	0.0729596191545925	0	-0.00529876618613543	0	337.106255043514	0	0.0921243482968106	0	0.0169454858155239	0	0	0	0	0	0
95.1	0	510.5497779678	0	0.0730767032840951	0	-0.00542351224349572	0	336.676673163958	0	0.0924596501712112	0	0.0169963743990002	0	0	0	0	0	0
95.11	0	509.31803291097	0	0.0733071656060419	0	-0.00557435094732336	0	337.241926187178	0	0.0923842445126794	0	0.0169641272002712	0	0	0	0	0	0
95.12	0	507.843352385685	0	0.0736459184041503	0	-0.005711953686234	0	338.536533004014	0	0.0919174848913281	0	0.016844216527657	0	0	0	0	0	0
95.13	0	506.596306504343	0	0.0740712073371113	0	-0.00580339891363279	0	340.200965587315	0	0.091299448843153	0	0.0166725340057234	0	0	0	0	0	0
95.14	0	506.45175699409	0	0.0746503583893712	0	-0.00585466246610737	0	342.00710296263	0	0.090796494881301	0	0.0165146673905669	0	0	0	0	0	0
95.15	0	507.982848564685	0	0.0754856136377091	0	-0.00590013119718402	0	343.879424844876	0	0.0905638819207644	0	0.0164337828290742	0	0	0	0	0	0
95.16	0	510.499056236687	0	0.0765052653806071	0	-0.00595907781857492	0	345.763959024477	0	0.0906624170137712	0	0.0164494214660213	0	0	0	0	0	0
95.17	0	512.168060017805	0	0.0774042888480927	0	-0.00602238978911457	0	347.422593956931	0	0.0910591009740957	0	0.0165291716650269	0	0	0	0	0	0
95.18	0	511.516326298704	0	0.0778806025285044	0	-0.00606875149290963	0	348.537683506006	0	0.0915938272587329	0	0.0166252555864094	0	0	0	0	0	0
95.19	0	508.495218178599	0	0.0778686517438358	0	-0.00607592406170805	0	348.894324952977	0	0.092032710204219	0	0.0167192473529534	0	0	0	0	0	0
95.2	0	504.151219328991	0	0.0775330270638234	0	-0.00603265268586025	0	348.23897472482	0	0.0921974133787837	0	0.0168217901492898	0	0	0	0	0	0
95.21	0	499.911191098894	0	0.0771228226970478	0	-0.00595035671866048	0	346.415451420534	0	0.0921161744784475	0	0.0169405061453491	0	0	0	0	0	0
95.22	0	496.725082168802	0	0.0767914232288419	0	-0.00585814950864758	0	343.866097595738	0	0.0920631720529081	0	0.0170762923224386	0	0	0	0	0	0
95.23	0	494.425059528575	0	0.0765224366755376	0	-0.00578693618860138	0	341.444407844078	0	0.0923265690157191	0	0.0172369706610492	0	0	0	0	0	0
95.24	0	492.509559108141	0	0.076272542667843	0	-0.00575033409868258	0	339.619440048243	0	0.0929165421000053	0	0.0174217236789582	0	0	0	0	0	0
95.25	0	491.178293841156	0	0.0760778658774321	0	-0.0057305802504733	0	338.342573950595	0	0.0936040692976578	0	0.0176026700825776	0	0	0	0	0	0
95.26	0	490.668285965681	0	0.0759360464573961	0	-0.00569140322565565	0	337.598866339628	0	0.0942000957116766	0	0.017744284940835	0	0	0	0	0	0
95.27	0	490.354766160801	0	0.0757585968985318	0	-0.00561675000764514	0	337.502972786027	0	0.0946637574801844	0	0.0178296804840145	0	0	0	0	0	0
95.28	0	489.570360271569	0	0.0755330785900551	0	-0.00553383743777998	0	337.922768392391	0	0.0949967688691328	0	0.0178550477502043	0	0	0	0	0	0
95.29	0	488.748340368115	0	0.0753782360470139	0	-0.00548591614180231	0	338.5277066618	0	0.0951748549814815	0	0.0178142863682786	0	0	0	0	0	0
95.3	0	489.030509755832	0	0.0753996481887734	0	-0.00548544417127432	0	339.17682426607	0	0.0951557377341856	0	0.0177047751522267	0	0	0	0	0	0
95.31	0	491.040450144492	0	0.0755870175922318	0	-0.00550926001303593	0	340.018243380471	0	0.0948582583168878	0	0.0175490181601316	0	0	0	0	0	0
95.32	0	494.510089846926	0	0.075862006268599	0	-0.00552973619923003	0	341.332775320769	0	0.0942045587192127	0	0.0174026248223827	0	0	0	0	0	0
95.33	0	498.966898345761	0	0.0761984707912642	0	-0.00553728944250386	0	343.22190782023	0	0.0933178605996189	0	0.017320759850696	0	0	0	0	0	0
95.34	0	504.148793927021	0	0.0766489306244276	0	-0.00554886245764878	0	345.248178848753	0	0.0925992897168462	0	0.0173143891019298	0	0	0	0	0	0
95.35	0	509.553134166748	0	0.0772253023489855	0	-0.00559920142943528	0	346.685575525381	0	0.0924490440012188	0	0.0173597572548205	0	0	0	0	0	0
95.36	0	513.96304497126	0	0.0777992587264035	0	-0.00570299013894062	0	347.298721105835	0	0.092928984932001	0	0.0174378773252435	0	0	0	0	0	0
95.37	0	515.604591544026	0	0.0781389400463366	0	-0.00581859928733365	0	347.519589194798	0	0.0937435070670769	0	0.0175305152731396	0	0	0	0	0	0
95.38	0	513.204094073965	0	0.0780915973789416	0	-0.00586510998883786	0	347.801147775699	0	0.0945041031944919	0	0.017595714526663	0	0	0	0	0	0
95.39	0	507.500594207247	0	0.0777963245137327	0	-0.00578976859802551	0	348.188262050473	0	0.0950246773686429	0	0.0175974161569983	0	0	0	0	0	0
95.4	0	501.358931112822	0	0.077622924552326	0	-0.00561784263610124	0	348.568194840662	0	0.0954221663896265	0	0.0175578079631251	0	0	0	0	0	0
95.41	0	497.777702677406	0	0.0778199973631039	0	-0.00542908124251006	0	348.84608327034	0	0.0959161331086381	0	0.0175408245573075	0	0	0	0	0	0
95.42	0	497.874222965756	0	0.078310287614433	0	-0.00528486258441913	0	348.742193398149	0	0.0965232687103131	0	0.0175814622650982	0	0	0	0	0	0
95.43	0	500.692464519544	0	0.0788302351868255	0	-0.00519182962710989	0	347.894851362524	0	0.0970306088698335	0	0.0176616920752386	0	0	0	0	0	0
95.44	0	504.368641986358	0	0.079168309922453	0	-0.00513384585428887	0	346.321271283383	0	0.0972629379789982	0	0.01775306927619	0	0	0	0	0	0
95.45	0	507.342610261899	0	0.0792941891210482	0	-0.00510289813796721	0	344.544544840777	0	0.0972406327270583	0	0.0178474266833648	0	0	0	0	0	0
95.46	0	508.754441296706	0	0.0793155388117679	0	-0.00509104409301347	0	343.299658393447	0	0.0970819775036016	0	0.0179441298891301	0	0	0	0	0	0
95.47	0	508.216660110959	0	0.0793235485549127	0	-0.00508471973180766	0	343.196463217989	0	0.0969029014979475	0	0.0180399368343869	0	0	0	0	0	0
95.48	0	505.874656602297	0	0.0793178672537501	0	-0.00508078052006306	0	344.387841661946	0	0.0967951167591047	0	0.0181329451465858	0	0	0	0	0	0
95.49	0	502.729263628379	0	0.0792739754409494	0	-0.00509314260502939	0	346.307155698805	0	0.0967816036066274	0	0.018210586216496	0	0	0	0	0	0
95.5	0	500.38449460508	0	0.0792247671729746	0	-0.00512905098231334	0	347.92178309793	0	0.0968218362927166	0	0.0182373745756348	0	0	0	0	0	0
95.51	0	499.986511123262	0	0.0792282496086145	0	-0.00516686482452811	0	348.511845198019	0	0.0968875710515811	0	0.0181807793093283	0	0	0	0	0	0
95.52	0	501.240406646123	0	0.0792644076524441	0	-0.00517492558568328	0	348.134297323405	0	0.0969594130590958	0	0.0180534985869677	0	0	0	0	0	0
